<svg width="858" height="968" viewBox="0 0 858 968" fill="none" xmlns="http://www.w3.org/2000/svg">
<g clip-path="url(#clip0_17_2)">
<path d="M644.361 -342.56L602.535 -313.643C561.307 -284.335 476.998 -227.452 433.316 -142.353C389.629 -58.5489 385.787 51.4066 349.566 141.403C313.341 230.104 246.822 298.922 218.062 393.816C190.91 488.213 201.873 608.143 166.099 698.434C131.156 787.459 46.4917 844.885 -76.8815 877.68C-200.201 908.442 -362.586 915.116 -422.095 987.242C-482.312 1061.75 -438.873 1203.77 -426.154 1323.3C-415.217 1444.25 -434.575 1545.31 -517.962 1601.77C-601.819 1660.24 -749.636 1677.25 -800.639 1754.96C-852.591 1834.11 -808.322 1974.87 -860.511 2054.39C-912.344 2133.36 -1059.21 2148.93 -1133.06 2157.34L-1206.91 2165.76L-1350.17 2071.73L-1324.32 2032.33C-1298.46 1992.93 -1246.98 1914.5 -1194.79 1834.99C-1143.2 1756.37 -1091.6 1677.76 -1039.41 1598.25C-987.815 1519.63 -936.219 1441.02 -884.03 1361.5C-832.553 1283.07 -780.838 1204.28 -728.649 1124.76C-677.29 1046.51 -625.457 967.538 -573.268 888.022C-522.028 809.952 -470.076 730.797 -419.073 653.088C-366.765 573.392 -314.695 494.056 -263.692 416.347C-211.502 336.831 -159.313 257.315 -108.31 179.606C-56.2398 100.271 -3.93207 20.5739 47.0709 -57.135C99.0228 -136.29 150.263 -214.36 202.452 -293.876C254.285 -372.85 305.644 -451.101 331.739 -490.859L357.833 -530.617L644.361 -342.56Z" fill="#2F2855"/>
<rect x="424" y="18" width="35" height="35" rx="17.5" fill="#24BBF0"/>
<rect x="459" y="87" width="18" height="18" rx="9" fill="#24BBF0"/>
<rect x="381" y="105" width="26" height="26" rx="13" fill="#24BBF0"/>
<rect x="213.99" y="782.999" width="35" height="35" rx="17.5" transform="rotate(-169.876 213.99 782.999)" fill="#24BBF0"/>
<rect x="199.72" y="714.884" width="18" height="18" rx="9" transform="rotate(-169.876 199.72 714.884)" fill="#24BBF0"/>
<rect x="247.434" y="680.72" width="10.9612" height="10.9641" rx="5.48059" transform="rotate(-169.876 247.434 680.72)" fill="#24BBF0"/>
<rect x="236.791" y="425.72" width="10.9612" height="10.9641" rx="5.48059" transform="rotate(-169.876 236.791 425.72)" fill="#24BBF0"/>
<rect x="5.79053" y="885.72" width="10.9612" height="10.9641" rx="5.48059" transform="rotate(-169.876 5.79053 885.72)" fill="#24BBF0"/>
<rect x="63.446" y="862.502" width="14.2402" height="14.2206" rx="7.11029" transform="rotate(-169.876 63.446 862.502)" fill="#24BBF0"/>
<rect x="262.921" y="401.243" width="25.3151" height="25.322" rx="12.6575" transform="rotate(-169.876 262.921 401.243)" fill="#24BBF0"/>
</g>
<defs>
<clipPath id="clip0_17_2">
<rect width="1399.86" height="609.271" fill="white" transform="translate(857.468 -202.69) rotate(123.278)"/>
</clipPath>
</defs>
</svg>
