<svg width="866" height="923" viewBox="0 0 866 923" fill="none" xmlns="http://www.w3.org/2000/svg">
<g clip-path="url(#clip0_17_14)">
<path d="M-279.499 2608.69L-244.367 2579C-209.92 2549 -138.782 2490.42 -114.615 2409.72C-90.1484 2330.19 -111.402 2230.35 -95.7968 2145.85C-79.892 2062.52 -29.226 1994.64 -22.1825 1906.33C-16.629 1818.61 -54.9295 1710.99 -39.8378 1626.26C-25.286 1542.74 46.0829 1483.64 161.691 1443.57C277.71 1405.35 438.199 1385.64 481.117 1315.35C524.197 1242.84 448.456 1117.96 408.494 1010.85C369.988 902.308 366.244 809.209 436.559 751.093C506.884 691.111 650.481 663.269 683.637 588.644C717.411 512.63 641.13 388.965 675.058 312.604C708.754 236.764 851.734 210.31 923.494 196.476L995.254 182.642L1159.64 255.681L1142.83 293.515C1126.02 331.348 1092.56 406.668 1058.63 483.028C1025.09 558.522 991.546 634.015 957.618 710.376C924.075 785.869 890.533 861.362 856.605 937.723C823.14 1013.04 789.521 1088.71 755.593 1165.07C722.205 1240.22 688.508 1316.06 654.581 1392.42C621.27 1467.39 587.496 1543.4 554.339 1618.03C520.334 1694.56 486.484 1770.75 453.327 1845.38C419.399 1921.74 385.471 1998.1 352.315 2072.72C318.464 2148.91 284.459 2225.45 251.302 2300.07C217.529 2376.09 184.218 2451.06 150.29 2527.42C116.593 2603.26 83.2052 2678.41 66.2413 2716.59L49.2773 2754.77L-279.499 2608.69Z" fill="#2F2855"/>
<rect x="340.423" y="894.495" width="35" height="35" rx="17.5" transform="rotate(-172.129 340.423 894.495)" fill="#24BBF0"/>
<rect x="315.201" y="821.352" width="18" height="18" rx="9" transform="rotate(-172.129 315.201 821.352)" fill="#24BBF0"/>
<rect x="387.768" y="805.802" width="26" height="26" rx="13" transform="rotate(-172.129 387.768 805.802)" fill="#24BBF0"/>
<rect x="631.2" y="241.901" width="35" height="35" rx="17.5" transform="rotate(17.9953 631.2 241.901)" fill="#24BBF0"/>
<rect x="636.008" y="311.329" width="18" height="18" rx="9" transform="rotate(17.9953 636.008 311.329)" fill="#24BBF0"/>
<rect x="584.066" y="338.637" width="10.9612" height="10.9641" rx="5.48059" transform="rotate(17.9953 584.066 338.637)" fill="#24BBF0"/>
<rect x="631.715" y="548.593" width="30.4976" height="30.5058" rx="15.2488" transform="rotate(17.9953 631.715 548.593)" fill="#24BBF0"/>
<rect x="851.505" y="168.659" width="10.9612" height="10.9641" rx="5.48059" transform="rotate(17.9953 851.505 168.659)" fill="#D9D9D9"/>
<rect x="791.213" y="183.763" width="14.2402" height="14.2206" rx="7.11029" transform="rotate(17.9953 791.213 183.763)" fill="#24BBF0"/>
<rect x="628.674" y="598.317" width="10.9612" height="10.9641" rx="5.48059" transform="rotate(17.9953 628.674 598.317)" fill="#24BBF0"/>
</g>
<defs>
<clipPath id="clip0_17_14">
<rect width="1445.1" height="639.559" fill="white" transform="translate(0 1320.61) rotate(-66.044)"/>
</clipPath>
</defs>
</svg>
