<svg width="1980" height="1080" viewBox="0 0 1980 1080" fill="none" xmlns="http://www.w3.org/2000/svg">
<g clip-path="url(#clip0_6_17)">
<rect width="1980" height="1080" fill="#181528"/>
<g clip-path="url(#clip1_6_17)">
<path d="M644.361 -342.56L602.535 -313.643C561.307 -284.335 476.998 -227.452 433.316 -142.353C389.629 -58.5489 385.787 51.4066 349.566 141.403C313.341 230.104 246.822 298.922 218.062 393.816C190.91 488.213 201.873 608.143 166.1 698.434C131.156 787.459 46.4918 844.885 -76.8815 877.68C-200.201 908.442 -362.585 915.116 -422.095 987.242C-482.312 1061.75 -438.873 1203.77 -426.154 1323.3C-415.217 1444.25 -434.575 1545.31 -517.962 1601.77C-601.819 1660.24 -749.636 1677.25 -800.639 1754.96C-852.591 1834.11 -808.322 1974.87 -860.511 2054.39C-912.344 2133.36 -1059.21 2148.93 -1133.06 2157.34L-1206.91 2165.76L-1350.17 2071.73L-1324.32 2032.33C-1298.46 1992.93 -1246.98 1914.5 -1194.79 1834.99C-1143.2 1756.37 -1091.6 1677.76 -1039.41 1598.25C-987.815 1519.63 -936.219 1441.02 -884.03 1361.5C-832.553 1283.07 -780.838 1204.28 -728.649 1124.76C-677.29 1046.51 -625.457 967.538 -573.268 888.022C-522.028 809.952 -470.076 730.797 -419.073 653.088C-366.765 573.392 -314.694 494.056 -263.691 416.347C-211.502 336.831 -159.313 257.315 -108.31 179.606C-56.2398 100.271 -3.93201 20.5739 47.071 -57.135C99.0229 -136.29 150.263 -214.36 202.452 -293.876C254.285 -372.85 305.644 -451.101 331.739 -490.859L357.833 -530.617L644.361 -342.56Z" fill="#2F2855"/>
<rect x="424" y="18" width="35" height="35" rx="17.5" fill="#24BBF0"/>
<rect x="459" y="87" width="18" height="18" rx="9" fill="#24BBF0"/>
<rect x="381" y="105" width="26" height="26" rx="13" fill="#24BBF0"/>
<rect x="213.99" y="782.999" width="35" height="35" rx="17.5" transform="rotate(-169.876 213.99 782.999)" fill="#24BBF0"/>
<rect x="199.72" y="714.884" width="18" height="18" rx="9" transform="rotate(-169.876 199.72 714.884)" fill="#24BBF0"/>
<rect x="247.434" y="680.72" width="10.9612" height="10.9641" rx="5.48059" transform="rotate(-169.876 247.434 680.72)" fill="#24BBF0"/>
<rect x="236.791" y="425.72" width="10.9612" height="10.9641" rx="5.48059" transform="rotate(-169.876 236.791 425.72)" fill="#24BBF0"/>
<rect x="5.7905" y="885.72" width="10.9612" height="10.9641" rx="5.48059" transform="rotate(-169.876 5.7905 885.72)" fill="#24BBF0"/>
<rect x="63.446" y="862.502" width="14.2402" height="14.2206" rx="7.11029" transform="rotate(-169.876 63.446 862.502)" fill="#24BBF0"/>
<rect x="262.921" y="401.243" width="25.3151" height="25.322" rx="12.6575" transform="rotate(-169.876 262.921 401.243)" fill="#24BBF0"/>
</g>
<g clip-path="url(#clip2_6_17)">
<path d="M834.501 2765.69L869.633 2736C904.08 2706 975.218 2647.42 999.385 2566.72C1023.85 2487.19 1002.6 2387.35 1018.2 2302.85C1034.11 2219.52 1084.77 2151.64 1091.82 2063.33C1097.37 1975.61 1059.07 1867.99 1074.16 1783.26C1088.71 1699.74 1160.08 1640.64 1275.69 1600.57C1391.71 1562.35 1552.2 1542.64 1595.12 1472.35C1638.2 1399.84 1562.46 1274.96 1522.49 1167.85C1483.99 1059.31 1480.24 966.209 1550.56 908.093C1620.88 848.111 1764.48 820.269 1797.64 745.644C1831.41 669.63 1755.13 545.965 1789.06 469.604C1822.75 393.764 1965.73 367.31 2037.49 353.476L2109.25 339.642L2273.64 412.681L2256.83 450.515C2240.02 488.348 2206.56 563.668 2172.63 640.028C2139.09 715.522 2105.55 791.015 2071.62 867.376C2038.08 942.869 2004.53 1018.36 1970.61 1094.72C1937.14 1170.04 1903.52 1245.71 1869.59 1322.07C1836.2 1397.22 1802.51 1473.06 1768.58 1549.42C1735.27 1624.39 1701.5 1700.4 1668.34 1775.03C1634.33 1851.56 1600.48 1927.75 1567.33 2002.38C1533.4 2078.74 1499.47 2155.1 1466.31 2229.72C1432.46 2305.91 1398.46 2382.45 1365.3 2457.07C1331.53 2533.09 1298.22 2608.06 1264.29 2684.42C1230.59 2760.26 1197.21 2835.41 1180.24 2873.59L1163.28 2911.77L834.501 2765.69Z" fill="#2F2855"/>
<rect x="1454.42" y="1051.49" width="35" height="35" rx="17.5" transform="rotate(-172.129 1454.42 1051.49)" fill="#24BBF0"/>
<rect x="1429.2" y="978.352" width="18" height="18" rx="9" transform="rotate(-172.129 1429.2 978.352)" fill="#24BBF0"/>
<rect x="1501.77" y="962.802" width="26" height="26" rx="13" transform="rotate(-172.129 1501.77 962.802)" fill="#24BBF0"/>
<rect x="1745.2" y="398.901" width="35" height="35" rx="17.5" transform="rotate(17.9953 1745.2 398.901)" fill="#24BBF0"/>
<rect x="1750.01" y="468.329" width="18" height="18" rx="9" transform="rotate(17.9953 1750.01 468.329)" fill="#24BBF0"/>
<rect x="1698.07" y="495.637" width="10.9612" height="10.9641" rx="5.48059" transform="rotate(17.9953 1698.07 495.637)" fill="#24BBF0"/>
<rect x="1745.72" y="705.593" width="30.4976" height="30.5058" rx="15.2488" transform="rotate(17.9953 1745.72 705.593)" fill="#24BBF0"/>
<rect x="1965.51" y="325.659" width="10.9612" height="10.9641" rx="5.48059" transform="rotate(17.9953 1965.51 325.659)" fill="#24BBF0"/>
<rect x="1905.21" y="340.763" width="14.2402" height="14.2206" rx="7.11029" transform="rotate(17.9953 1905.21 340.763)" fill="#24BBF0"/>
<rect x="1742.67" y="755.317" width="10.9612" height="10.9641" rx="5.48059" transform="rotate(17.9953 1742.67 755.317)" fill="#24BBF0"/>
</g>
</g>
<defs>
<clipPath id="clip0_6_17">
<rect width="1980" height="1080" fill="white"/>
</clipPath>
<clipPath id="clip1_6_17">
<rect width="1399.86" height="609.271" fill="white" transform="translate(857.468 -202.69) rotate(123.278)"/>
</clipPath>
<clipPath id="clip2_6_17">
<rect width="1445.1" height="639.559" fill="white" transform="translate(1114 1477.61) rotate(-66.044)"/>
</clipPath>
</defs>
</svg>
